<svg version="1.1" id="Layer_1" xmlns="http://www.w3.org/2000/svg" xmlns:xlink="http://www.w3.org/1999/xlink" x="0px" y="0px"
	 width="100%" viewBox="0 0 120 120" enable-background="new 0 0 120 120" xml:space="preserve">
<path fill="#C4AE74" opacity="1.000000" stroke="none" 
	d="
M1.000000,79.000000 
	C1.000000,57.312439 1.000000,35.624878 1.352331,13.451818 
	C5.469775,8.977547 9.234887,4.988773 13.000000,1.000000 
	C34.020893,1.000000 55.041790,1.000000 76.196167,1.255148 
	C79.837303,5.448429 83.545410,9.231379 86.766205,13.391603 
	C88.325218,15.405355 89.454285,18.040632 89.902634,20.550861 
	C90.435730,23.535570 90.028107,26.688301 90.028107,30.000000 
	C100.803864,30.000000 110.901932,30.000000 121.000000,30.000000 
	C121.000000,40.354229 121.000000,50.708454 120.555824,61.543339 
	C118.523178,62.023994 116.934708,62.023994 115.028893,62.023994 
	C115.028893,75.299408 114.914597,88.037109 115.098663,100.770500 
	C115.153755,104.581337 113.840111,106.803177 110.823456,109.296326 
	C106.962158,112.487518 104.222809,117.036255 101.000000,121.000000 
	C82.979103,121.000000 64.958214,121.000000 46.800735,120.761597 
	C42.568947,116.329460 38.343460,112.251564 34.452801,107.875954 
	C33.178444,106.442764 32.294239,104.290337 32.077530,102.371292 
	C31.697823,99.008858 31.971581,95.572624 31.971581,92.028236 
	C26.905993,92.028236 22.575274,92.253128 18.287815,91.920479 
	C16.506575,91.782288 14.561980,90.768005 13.135085,89.607101 
	C8.970263,86.218643 5.028936,82.555481 1.000000,79.000000 
M59.477859,2.730641 
	C50.144737,2.730644 40.719051,3.553726 31.502506,2.517178 
	C20.586512,1.289499 12.717015,4.849926 6.223881,13.360741 
	C4.094944,16.151226 2.615584,18.580637 2.668485,22.182871 
	C2.837330,33.680130 3.601747,45.265991 2.495701,56.658363 
	C1.291327,69.063515 4.664379,78.732643 14.711185,85.939575 
	C16.697771,87.364624 19.202385,88.602226 21.576317,88.838371 
	C26.149340,89.293251 30.799662,88.970985 35.978069,88.970985 
	C35.978069,92.985596 35.960907,96.440186 35.982510,99.894524 
	C36.008263,104.012810 48.341309,118.531212 52.362236,119.181160 
	C52.850605,119.260094 53.360477,119.212585 53.860382,119.212624 
	C67.026749,119.213524 80.194000,119.284012 93.358337,119.120384 
	C94.956322,119.100517 96.882767,118.184288 98.075363,117.064201 
	C111.172516,104.763474 111.141174,104.730110 111.141182,86.778091 
	C111.141182,81.278214 111.141182,75.778343 111.141182,70.278465 
	C111.141182,66.657158 111.141190,63.035843 111.141190,59.262589 
	C114.131790,58.971764 116.527374,58.738800 118.924484,58.505688 
	C118.924484,49.853264 118.924484,41.598343 118.924484,32.774231 
	C107.915215,32.774231 97.183632,32.774231 86.072746,32.774231 
	C86.072746,30.231346 86.130104,28.257170 86.059013,26.287630 
	C85.957756,23.482000 86.886154,19.627995 85.414917,18.055847 
	C78.581543,10.753802 73.579742,-0.078154 59.477859,2.730641 
z"/>
<path fill="#000000" opacity="1.000000" stroke="none" 
	d="
M1.000000,79.468658 
	C5.028936,82.555481 8.970263,86.218643 13.135085,89.607101 
	C14.561980,90.768005 16.506575,91.782288 18.287815,91.920479 
	C22.575274,92.253128 26.905993,92.028236 31.971581,92.028236 
	C31.971581,95.572624 31.697823,99.008858 32.077530,102.371292 
	C32.294239,104.290337 33.178444,106.442764 34.452801,107.875954 
	C38.343460,112.251564 42.568947,116.329460 46.332077,120.761597 
	C31.075834,121.000000 16.151670,121.000000 1.000000,121.000000 
	C1.000000,107.313278 1.000000,93.625298 1.000000,79.468658 
z"/>
<path fill="#000000" opacity="1.000000" stroke="none" 
	d="
M121.000000,29.531342 
	C110.901932,30.000000 100.803864,30.000000 90.028107,30.000000 
	C90.028107,26.688301 90.435730,23.535570 89.902634,20.550861 
	C89.454285,18.040632 88.325218,15.405355 86.766205,13.391603 
	C83.545410,9.231379 79.837303,5.448429 76.664825,1.255148 
	C91.578194,1.000000 106.156387,1.000000 121.000000,1.000000 
	C121.000000,10.352557 121.000000,19.707621 121.000000,29.531342 
z"/>
<path fill="#000000" opacity="1.000000" stroke="none" 
	d="
M101.469040,121.000000 
	C104.222809,117.036255 106.962158,112.487518 110.823456,109.296326 
	C113.840111,106.803177 115.153755,104.581337 115.098663,100.770500 
	C114.914597,88.037109 115.028893,75.299408 115.028893,62.023994 
	C116.934708,62.023994 118.523178,62.023994 120.555824,62.011997 
	C121.000000,81.556915 121.000000,101.113823 121.000000,121.000000 
	C114.649818,121.000000 108.293953,121.000000 101.469040,121.000000 
z"/>
<path fill="#000000" opacity="1.000000" stroke="none" 
	d="
M12.520824,1.000000 
	C9.234887,4.988773 5.469775,8.977547 1.352331,12.983160 
	C1.000000,9.078017 1.000000,5.156034 1.000000,1.000000 
	C4.678595,1.000000 8.360122,1.000000 12.520824,1.000000 
z"/>
<path fill="#0B0B0A" opacity="1.000000" stroke="none" 
	d="
M59.971943,2.730636 
	C73.579742,-0.078154 78.581543,10.753802 85.414917,18.055847 
	C86.886154,19.627995 85.957756,23.482000 86.059013,26.287630 
	C86.130104,28.257170 86.072746,30.231346 86.072746,32.774231 
	C97.183632,32.774231 107.915215,32.774231 118.924484,32.774231 
	C118.924484,41.598343 118.924484,49.853264 118.924484,58.505688 
	C116.527374,58.738800 114.131790,58.971764 111.141190,59.262589 
	C111.141190,63.035843 111.141182,66.657158 111.141182,70.278465 
	C111.141182,75.778343 111.141182,81.278214 111.141182,86.778091 
	C111.141174,104.730110 111.172516,104.763474 98.075363,117.064201 
	C96.882767,118.184288 94.956322,119.100517 93.358337,119.120384 
	C80.194000,119.284012 67.026749,119.213524 53.860382,119.212624 
	C53.360477,119.212585 52.850605,119.260094 52.362236,119.181160 
	C48.341309,118.531212 36.008263,104.012810 35.982510,99.894524 
	C35.960907,96.440186 35.978069,92.985596 35.978069,88.970985 
	C30.799662,88.970985 26.149340,89.293251 21.576317,88.838371 
	C19.202385,88.602226 16.697771,87.364624 14.711185,85.939575 
	C4.664379,78.732643 1.291327,69.063515 2.495701,56.658363 
	C3.601747,45.265991 2.837330,33.680130 2.668485,22.182871 
	C2.615584,18.580637 4.094944,16.151226 6.223881,13.360741 
	C12.717015,4.849926 20.586512,1.289499 31.502506,2.517178 
	C40.719051,3.553726 50.144737,2.730644 59.971943,2.730636 
M72.354362,10.109936 
	C71.982513,9.963304 71.610664,9.816671 71.438293,9.584331 
	C71.438293,9.584331 71.357910,9.382647 71.041641,8.715384 
	C69.422226,8.122966 67.807358,7.030962 66.182693,7.016189 
	C51.560581,6.883232 36.936752,6.942273 22.313425,6.937890 
	C18.700970,6.936807 16.010073,8.313292 14.309452,12.017047 
	C14.037224,12.208803 13.883317,12.470199 13.829559,12.861244 
	C13.829559,12.861244 13.890658,12.875329 13.282834,13.084610 
	C13.046932,13.614951 12.811030,14.145292 12.666051,14.698459 
	C12.666051,14.698459 12.678805,14.605586 12.002762,14.534267 
	C11.870149,14.920249 11.737536,15.306231 11.688476,15.696747 
	C11.688476,15.696747 11.682800,15.613264 11.003478,15.548917 
	C10.873864,15.938229 10.744249,16.327539 10.706442,16.721987 
	C10.706442,16.721987 10.702086,16.630142 10.030436,16.581711 
	C9.898329,16.967588 9.766222,17.353466 9.734208,17.743542 
	C9.734208,17.743542 9.729733,17.643463 9.063318,17.598513 
	C8.923674,17.979036 8.784029,18.359558 8.692034,18.915630 
	C8.692034,18.915630 8.607980,18.754232 7.786227,18.926641 
	C7.439900,20.648193 6.807043,22.367512 6.793597,24.091661 
	C6.704151,35.561054 7.421702,47.083385 6.544224,58.485950 
	C5.774292,68.490997 8.337104,76.332375 16.523756,82.069138 
	C18.508352,83.459831 20.972677,84.756294 23.306877,84.938759 
	C28.699423,85.360283 34.147404,85.072655 39.888386,85.072655 
	C39.888386,90.272331 39.711414,94.908546 39.988590,99.517448 
	C40.080177,101.040398 41.343117,102.492897 42.067814,103.936928 
	C42.067814,103.936928 42.027378,103.931770 42.363026,104.443375 
	C43.257702,105.241592 44.152378,106.039818 45.332123,107.456009 
	C48.826618,109.958107 50.264748,115.103394 55.792168,115.038086 
	C67.620956,114.898315 79.453934,115.083252 91.281403,114.895615 
	C93.035789,114.867783 95.001610,113.849693 96.474373,112.757019 
	C104.779663,106.595161 108.817978,98.724693 107.202614,87.973633 
	C106.345703,82.270485 107.050850,76.332634 107.050850,70.500732 
	C107.050850,65.386269 107.050858,60.271809 107.050858,55.348766 
	C110.071281,54.971882 112.490784,54.669979 114.878891,54.371994 
	C114.878891,48.456093 114.878891,43.045681 114.878891,37.504009 
	C106.493385,37.504009 98.431206,37.504009 89.996170,37.504009 
	C89.996170,57.589363 89.996170,77.357277 89.996170,97.355423 
	C78.879524,97.355423 68.141090,97.355423 57.183495,97.355423 
	C57.183495,93.159409 57.183495,89.244965 57.183495,84.886208 
	C64.001976,84.734169 71.475807,86.216995 76.108559,76.969048 
	C76.512756,76.586662 76.916962,76.204285 77.100380,75.884949 
	C83.934792,69.839409 79.958420,61.900280 81.364281,55.074051 
	C75.560204,55.074051 70.327377,55.074051 64.730194,55.074051 
	C64.730194,59.116676 64.730194,62.886753 64.730194,66.572350 
	C61.957451,66.572350 59.570915,66.572350 56.700897,66.572350 
	C56.700897,56.640446 56.700897,47.064705 56.700897,37.356415 
	C48.272484,37.356415 40.343754,37.356415 32.153118,37.356415 
	C32.153118,43.114662 32.153118,48.642315 32.153118,54.314728 
	C34.870987,54.488503 37.282040,54.642662 39.670906,54.795399 
	C39.670906,59.156929 39.670906,63.063145 39.670906,67.085236 
	C34.242435,67.085236 29.148539,67.085236 23.847172,67.085236 
	C23.847172,52.794945 23.847172,38.749371 23.847172,24.201900 
	C37.634007,24.201900 51.095516,24.201900 64.823166,25.075754 
	C64.823166,28.991751 64.823166,32.907749 64.823166,37.073227 
	C70.886055,37.073227 76.208557,37.073227 82.379028,37.073227 
	C81.944206,31.081608 81.537437,25.476416 81.181686,19.915447 
	C81.181686,19.915447 81.212624,19.855429 81.118126,19.187500 
	C79.338264,17.345448 77.558403,15.503397 75.627151,13.164766 
	C74.858315,12.493662 74.089478,11.822556 73.049187,10.789783 
	C73.049187,10.789783 72.648056,10.581017 72.398270,10.515662 
	C72.398270,10.515662 72.327873,10.764069 72.354362,10.109936 
z"/>
<path fill="#D0BA7F" opacity="1.000000" stroke="none" 
	d="
M73.320641,11.151451 
	C74.089478,11.822556 74.858315,12.493662 75.391220,13.491874 
	C75.140533,17.872038 77.390579,19.652452 81.212624,19.855429 
	C81.212624,19.855429 81.181686,19.915447 81.102211,20.362461 
	C81.000496,23.289127 80.980972,25.768808 80.955467,28.248426 
	C80.894135,34.211323 80.346458,34.765930 74.445885,34.854771 
	C67.058144,34.966007 67.058365,34.966003 67.064857,27.573673 
	C67.065872,26.416487 67.063850,25.259298 66.958862,23.698238 
	C65.374451,22.810736 63.898281,21.921730 62.413754,21.907545 
	C50.430416,21.793055 38.443169,21.977951 26.462341,21.770100 
	C22.238331,21.696817 20.962381,23.349562 21.023188,27.354143 
	C21.189962,38.337315 21.073439,49.324718 21.077700,60.310448 
	C21.081387,69.815910 21.086624,69.815918 30.605629,69.817085 
	C42.314011,69.818535 42.203979,69.817589 42.302769,58.233189 
	C42.335533,54.390995 41.955750,51.582230 37.092575,52.042187 
	C36.257050,52.121208 34.610161,51.410915 34.580265,50.979210 
	C34.352940,47.696838 34.092525,44.330700 34.673817,41.142231 
	C34.809757,40.396587 38.107262,39.994610 39.981770,39.853176 
	C42.795395,39.640884 45.662727,40.041397 48.460808,39.744247 
	C53.230373,39.237743 54.516571,41.406384 54.331245,45.823338 
	C54.059361,52.303299 54.160614,58.806721 54.357311,65.292427 
	C54.400490,66.716042 55.133816,68.849037 56.194843,69.390556 
	C62.178669,72.444580 67.578262,69.112968 67.710045,62.570690 
	C67.730133,61.573391 67.524918,60.460484 67.900139,59.611538 
	C68.304085,58.697639 69.135071,57.593094 70.009682,57.326725 
	C76.918640,55.222565 79.985718,57.359219 79.632713,64.450882 
	C79.442184,68.278252 81.272919,72.701172 77.321167,75.821907 
	C76.916962,76.204285 76.512756,76.586662 75.059723,77.483276 
	C72.649147,78.837593 71.339500,79.782509 69.912643,80.491585 
	C68.077438,81.403595 66.179741,82.728668 64.254166,82.829506 
	C54.374985,83.346886 54.368862,83.229492 54.415291,93.180176 
	C54.418400,93.846481 54.478500,94.518524 54.413319,95.178146 
	C54.041092,98.944939 55.870926,100.072021 59.446007,100.007469 
	C68.604828,99.842102 77.773926,99.769463 86.928101,100.034172 
	C91.217972,100.158211 92.282623,98.480858 92.223419,94.481583 
	C92.028664,81.324768 92.151100,68.163277 92.151276,55.003578 
	C92.151497,38.909431 92.147896,39.004124 108.509521,39.596050 
	C112.071243,39.724907 113.518501,41.145420 112.930130,44.416008 
	C112.407700,47.320057 115.307365,52.241478 109.132523,52.197777 
	C105.344582,52.170971 104.844032,54.072361 104.877632,57.191650 
	C104.992439,67.851425 104.261833,78.566719 105.122292,89.157768 
	C105.846031,98.065971 103.180504,104.718613 96.133469,109.710136 
	C94.112251,111.141777 91.549438,112.473312 89.166451,112.604301 
	C82.191154,112.987701 75.159004,112.390938 68.190681,112.833115 
	C59.420776,113.389618 51.273815,112.908112 45.577480,104.961914 
	C45.494366,104.845970 45.280178,104.823990 45.063377,104.798157 
	C44.999596,104.838158 45.055763,104.977859 44.935139,104.660858 
	C44.401928,104.198341 43.989342,104.052811 43.331524,103.783882 
	C42.733322,103.750908 42.380348,103.841339 42.027378,103.931770 
	C42.027378,103.931770 42.067814,103.936928 42.236004,103.509926 
	C42.334400,97.931541 42.049751,92.771118 42.265820,87.631752 
	C42.425823,83.825859 40.944355,82.667412 37.318375,82.865700 
	C32.840813,83.110558 28.334980,83.034645 23.850918,82.856651 
	C22.316086,82.795731 20.464596,82.421135 19.347488,81.485657 
	C12.560501,75.802162 6.692400,69.597618 8.931824,59.535900 
	C9.284560,57.951054 8.995629,56.220036 8.978893,54.556850 
	C8.858806,42.622612 8.732388,30.688431 8.607980,18.754232 
	C8.607980,18.754232 8.692034,18.915630 8.999814,18.846445 
	C9.448307,18.399328 9.589020,18.021395 9.729733,17.643463 
	C9.729733,17.643463 9.734208,17.743542 10.015793,17.755598 
	C10.432281,17.388483 10.567183,17.009314 10.702086,16.630142 
	C10.702086,16.630142 10.706442,16.721987 10.991996,16.735674 
	C11.412633,16.370663 11.547716,15.991963 11.682800,15.613264 
	C11.682800,15.613264 11.688476,15.696747 11.976610,15.715420 
	C12.402766,15.357924 12.540787,14.981755 12.678806,14.605586 
	C12.678805,14.605586 12.666051,14.698459 13.003107,14.736780 
	C13.523663,14.141844 13.707161,13.508587 13.890658,12.875329 
	C13.890658,12.875329 13.829559,12.861244 14.147408,13.109355 
	C15.001279,13.295886 15.537304,13.234305 16.358660,12.963890 
	C19.387463,11.583730 22.071976,9.607479 24.886143,9.401359 
	C31.651260,8.905853 38.477230,9.222022 45.278534,9.244481 
	C53.971714,9.273187 62.664791,9.335064 71.357910,9.382647 
	C71.357910,9.382647 71.438293,9.584331 71.319473,9.957965 
	C71.576393,10.475756 71.952133,10.619912 72.327873,10.764069 
	C72.327873,10.764069 72.398270,10.515662 72.363800,10.757044 
	C72.659760,11.049434 72.990204,11.100442 73.320641,11.151451 
z"/>
<path fill="#F2EFEA" opacity="1.000000" stroke="none" 
	d="
M45.127159,104.758163 
	C45.280178,104.823990 45.494366,104.845970 45.577480,104.961914 
	C51.273815,112.908112 59.420776,113.389618 68.190681,112.833115 
	C75.159004,112.390938 82.191154,112.987701 89.166451,112.604301 
	C91.549438,112.473312 94.112251,111.141777 96.133469,109.710136 
	C103.180504,104.718613 105.846031,98.065971 105.122292,89.157768 
	C104.261833,78.566719 104.992439,67.851425 104.877632,57.191650 
	C104.844032,54.072361 105.344582,52.170971 109.132523,52.197777 
	C115.307365,52.241478 112.407700,47.320057 112.930130,44.416008 
	C113.518501,41.145420 112.071243,39.724907 108.509521,39.596050 
	C92.147896,39.004124 92.151497,38.909431 92.151276,55.003578 
	C92.151100,68.163277 92.028664,81.324768 92.223419,94.481583 
	C92.282623,98.480858 91.217972,100.158211 86.928101,100.034172 
	C77.773926,99.769463 68.604828,99.842102 59.446007,100.007469 
	C55.870926,100.072021 54.041092,98.944939 54.413319,95.178146 
	C54.478500,94.518524 54.418400,93.846481 54.415291,93.180176 
	C54.368862,83.229492 54.374985,83.346886 64.254166,82.829506 
	C66.179741,82.728668 68.077438,81.403595 69.912643,80.491585 
	C71.339500,79.782509 72.649147,78.837593 74.356445,77.932709 
	C71.475807,86.216995 64.001976,84.734169 57.183495,84.886208 
	C57.183495,89.244965 57.183495,93.159409 57.183495,97.355423 
	C68.141090,97.355423 78.879524,97.355423 89.996170,97.355423 
	C89.996170,77.357277 89.996170,57.589363 89.996170,37.504009 
	C98.431206,37.504009 106.493385,37.504009 114.878891,37.504009 
	C114.878891,43.045681 114.878891,48.456093 114.878891,54.371994 
	C112.490784,54.669979 110.071281,54.971882 107.050858,55.348766 
	C107.050858,60.271809 107.050850,65.386269 107.050850,70.500732 
	C107.050850,76.332634 106.345703,82.270485 107.202614,87.973633 
	C108.817978,98.724693 104.779663,106.595161 96.474373,112.757019 
	C95.001610,113.849693 93.035789,114.867783 91.281403,114.895615 
	C79.453934,115.083252 67.620956,114.898315 55.792168,115.038086 
	C50.264748,115.103394 48.826618,109.958107 45.199852,106.801010 
	C45.087440,105.683403 45.107300,105.220779 45.127159,104.758163 
z"/>
<path fill="#E3E1DB" opacity="1.000000" stroke="none" 
	d="
M77.210770,75.853424 
	C81.272919,72.701172 79.442184,68.278252 79.632713,64.450882 
	C79.985718,57.359219 76.918640,55.222565 70.009682,57.326725 
	C69.135071,57.593094 68.304085,58.697639 67.900139,59.611538 
	C67.524918,60.460484 67.730133,61.573391 67.710045,62.570690 
	C67.578262,69.112968 62.178669,72.444580 56.194843,69.390556 
	C55.133816,68.849037 54.400490,66.716042 54.357311,65.292427 
	C54.160614,58.806721 54.059361,52.303299 54.331245,45.823338 
	C54.516571,41.406384 53.230373,39.237743 48.460808,39.744247 
	C45.662727,40.041397 42.795395,39.640884 39.981770,39.853176 
	C38.107262,39.994610 34.809757,40.396587 34.673817,41.142231 
	C34.092525,44.330700 34.352940,47.696838 34.580265,50.979210 
	C34.610161,51.410915 36.257050,52.121208 37.092575,52.042187 
	C41.955750,51.582230 42.335533,54.390995 42.302769,58.233189 
	C42.203979,69.817589 42.314011,69.818535 30.605629,69.817085 
	C21.086624,69.815918 21.081387,69.815910 21.077700,60.310448 
	C21.073439,49.324718 21.189962,38.337315 21.023188,27.354143 
	C20.962381,23.349562 22.238331,21.696817 26.462341,21.770100 
	C38.443169,21.977951 50.430416,21.793055 62.413754,21.907545 
	C63.898281,21.921730 65.374451,22.810736 66.540047,23.695797 
	C65.669403,24.132120 65.113213,24.167011 64.557022,24.201900 
	C51.095516,24.201900 37.634007,24.201900 23.847172,24.201900 
	C23.847172,38.749371 23.847172,52.794945 23.847172,67.085236 
	C29.148539,67.085236 34.242435,67.085236 39.670906,67.085236 
	C39.670906,63.063145 39.670906,59.156929 39.670906,54.795399 
	C37.282040,54.642662 34.870987,54.488503 32.153118,54.314728 
	C32.153118,48.642315 32.153118,43.114662 32.153118,37.356415 
	C40.343754,37.356415 48.272484,37.356415 56.700897,37.356415 
	C56.700897,47.064705 56.700897,56.640446 56.700897,66.572350 
	C59.570915,66.572350 61.957451,66.572350 64.730194,66.572350 
	C64.730194,62.886753 64.730194,59.116676 64.730194,55.074051 
	C70.327377,55.074051 75.560204,55.074051 81.364281,55.074051 
	C79.958420,61.900280 83.934792,69.839409 77.210770,75.853424 
z"/>
<path fill="#EDECE8" opacity="1.000000" stroke="none" 
	d="
M8.197104,18.840437 
	C8.732388,30.688431 8.858806,42.622612 8.978893,54.556850 
	C8.995629,56.220036 9.284560,57.951054 8.931824,59.535900 
	C6.692400,69.597618 12.560501,75.802162 19.347488,81.485657 
	C20.464596,82.421135 22.316086,82.795731 23.850918,82.856651 
	C28.334980,83.034645 32.840813,83.110558 37.318375,82.865700 
	C40.944355,82.667412 42.425823,83.825859 42.265820,87.631752 
	C42.049751,92.771118 42.334400,97.931541 42.237339,103.530266 
	C41.343117,102.492897 40.080177,101.040398 39.988590,99.517448 
	C39.711414,94.908546 39.888386,90.272331 39.888386,85.072655 
	C34.147404,85.072655 28.699423,85.360283 23.306877,84.938759 
	C20.972677,84.756294 18.508352,83.459831 16.523756,82.069138 
	C8.337104,76.332375 5.774292,68.490997 6.544224,58.485950 
	C7.421702,47.083385 6.704151,35.561054 6.793597,24.091661 
	C6.807043,22.367512 7.439900,20.648193 8.197104,18.840437 
z"/>
<path fill="#EFECE4" opacity="1.000000" stroke="none" 
	d="
M71.199776,9.049015 
	C62.664791,9.335064 53.971714,9.273187 45.278534,9.244481 
	C38.477230,9.222022 31.651260,8.905853 24.886143,9.401359 
	C22.071976,9.607479 19.387463,11.583730 16.161316,12.729540 
	C15.373152,12.435660 15.067665,12.167296 14.762178,11.898932 
	C16.010073,8.313292 18.700970,6.936807 22.313425,6.937890 
	C36.936752,6.942273 51.560581,6.883232 66.182693,7.016189 
	C67.807358,7.030962 69.422226,8.122966 71.199776,9.049015 
z"/>
<path fill="#CECDCB" opacity="1.000000" stroke="none" 
	d="
M64.690094,24.638828 
	C65.113213,24.167011 65.669403,24.132120 66.644409,24.099670 
	C67.063850,25.259298 67.065872,26.416487 67.064857,27.573673 
	C67.058365,34.966003 67.058144,34.966007 74.445885,34.854771 
	C80.346458,34.765930 80.894135,34.211323 80.955467,28.248426 
	C80.980972,25.768808 81.000496,23.289127 81.076698,20.340349 
	C81.537437,25.476416 81.944206,31.081608 82.379028,37.073227 
	C76.208557,37.073227 70.886055,37.073227 64.823166,37.073227 
	C64.823166,32.907749 64.823166,28.991751 64.690094,24.638828 
z"/>
<path fill="#EFECE4" opacity="1.000000" stroke="none" 
	d="
M81.165375,19.521465 
	C77.390579,19.652452 75.140533,17.872038 75.466919,13.740164 
	C77.558403,15.503397 79.338264,17.345448 81.165375,19.521465 
z"/>
<path fill="#EDECE8" opacity="1.000000" stroke="none" 
	d="
M45.063377,104.798157 
	C45.107300,105.220779 45.087440,105.683403 45.057320,106.492035 
	C44.152378,106.039818 43.257702,105.241592 42.195202,104.187576 
	C42.380348,103.841339 42.733322,103.750908 43.596199,103.940971 
	C44.422661,104.473595 44.739212,104.725731 45.055763,104.977859 
	C45.055763,104.977859 44.999596,104.838158 45.063377,104.798157 
z"/>
<path fill="#EDECE8" opacity="1.000000" stroke="none" 
	d="
M13.586746,12.979969 
	C13.707161,13.508587 13.523663,14.141844 12.957646,14.725368 
	C12.811030,14.145292 13.046932,13.614951 13.586746,12.979969 
z"/>
<path fill="#EDECE8" opacity="1.000000" stroke="none" 
	d="
M14.535815,11.957990 
	C15.067665,12.167296 15.373152,12.435660 15.875983,12.938375 
	C15.537304,13.234305 15.001279,13.295886 14.156494,13.079350 
	C13.883317,12.470199 14.037224,12.208803 14.535815,11.957990 
z"/>
<path fill="#EDECE8" opacity="1.000000" stroke="none" 
	d="
M9.396525,17.620987 
	C9.589020,18.021395 9.448307,18.399328 8.975989,18.758671 
	C8.784029,18.359558 8.923674,17.979036 9.396525,17.620987 
z"/>
<path fill="#EDECE8" opacity="1.000000" stroke="none" 
	d="
M10.366261,16.605927 
	C10.567183,17.009314 10.432281,17.388483 9.965746,17.753498 
	C9.766222,17.353466 9.898329,16.967588 10.366261,16.605927 
z"/>
<path fill="#EDECE8" opacity="1.000000" stroke="none" 
	d="
M11.343140,15.581091 
	C11.547716,15.991963 11.412633,16.370663 10.946093,16.733107 
	C10.744249,16.327539 10.873864,15.938229 11.343140,15.581091 
z"/>
<path fill="#EDECE8" opacity="1.000000" stroke="none" 
	d="
M12.340784,14.569927 
	C12.540787,14.981755 12.402766,15.357924 11.934835,15.713152 
	C11.737536,15.306231 11.870149,14.920249 12.340784,14.569927 
z"/>
<path fill="#EFECE4" opacity="1.000000" stroke="none" 
	d="
M73.184914,10.970617 
	C72.990204,11.100442 72.659760,11.049434 72.488693,10.789721 
	C72.648056,10.581017 73.049187,10.789783 73.184914,10.970617 
z"/>
<path fill="#EFECE4" opacity="1.000000" stroke="none" 
	d="
M72.341118,10.437002 
	C71.952133,10.619912 71.576393,10.475756 71.219734,10.000819 
	C71.610664,9.816671 71.982513,9.963304 72.341118,10.437002 
z"/>
<path fill="#F2EFEA" opacity="1.000000" stroke="none" 
	d="
M44.935135,104.660858 
	C44.739212,104.725731 44.422661,104.473595 43.841431,104.064369 
	C43.989342,104.052811 44.401928,104.198341 44.935135,104.660858 
z"/>
</svg>